<?xml version="1.0" encoding="UTF-8" standalone="no"?>
<!DOCTYPE svg PUBLIC "-//W3C//DTD SVG 1.1//EN"
 "http://www.w3.org/Graphics/SVG/1.1/DTD/svg11.dtd">
<!-- Generated by graphviz version 2.43.0 (0)
 -->
<!-- Title: %3 Pages: 1 -->
<svg width="3766pt" height="908pt"
 viewBox="0.00 0.00 3765.88 908.00" xmlns="http://www.w3.org/2000/svg" xmlns:xlink="http://www.w3.org/1999/xlink">
<g id="graph0" class="graph" transform="scale(1 1) rotate(0) translate(4 904)">
<title>%3</title>
<polygon fill="white" stroke="transparent" points="-4,4 -4,-904 3761.88,-904 3761.88,4 -4,4"/>
<!-- [root] module.cats.data.yandex_compute_image.ubuntu_image (expand) -->
<g id="node1" class="node">
<title>[root] module.cats.data.yandex_compute_image.ubuntu_image (expand)</title>
<polygon fill="none" stroke="black" points="419,-540 0,-540 0,-504 419,-504 419,-540"/>
<text text-anchor="middle" x="209.5" y="-518.3" font-family="Times,serif" font-size="14.00">module.cats.data.yandex_compute_image.ubuntu_image</text>
</g>
<!-- [root] provider[&quot;registry.terraform.io/yandex&#45;cloud/yandex&quot;] -->
<g id="node7" class="node">
<title>[root] provider[&quot;registry.terraform.io/yandex&#45;cloud/yandex&quot;]</title>
<polygon fill="none" stroke="black" points="2907.5,-108 2538.84,-90 2907.5,-72 3276.16,-90 2907.5,-108"/>
<text text-anchor="middle" x="2907.5" y="-86.3" font-family="Times,serif" font-size="14.00">provider[&quot;registry.terraform.io/yandex&#45;cloud/yandex&quot;]</text>
</g>
<!-- [root] module.cats.data.yandex_compute_image.ubuntu_image (expand)&#45;&gt;[root] provider[&quot;registry.terraform.io/yandex&#45;cloud/yandex&quot;] -->
<g id="edge3" class="edge">
<title>[root] module.cats.data.yandex_compute_image.ubuntu_image (expand)&#45;&gt;[root] provider[&quot;registry.terraform.io/yandex&#45;cloud/yandex&quot;]</title>
<path fill="none" stroke="black" d="M263.21,-503.99C315.93,-483.55 388.5,-443.66 388.5,-379 388.5,-379 388.5,-379 388.5,-233 388.5,-124.26 1904.45,-98.78 2584.32,-92.82"/>
<polygon fill="black" stroke="black" points="2584.54,-96.31 2594.51,-92.73 2584.48,-89.31 2584.54,-96.31"/>
</g>
<!-- [root] module.cats (expand) -->
<g id="node15" class="node">
<title>[root] module.cats (expand)</title>
<ellipse fill="none" stroke="black" cx="911.5" cy="-450" rx="139.18" ry="18"/>
<text text-anchor="middle" x="911.5" y="-446.3" font-family="Times,serif" font-size="14.00">[root] module.cats (expand)</text>
</g>
<!-- [root] module.cats.data.yandex_compute_image.ubuntu_image (expand)&#45;&gt;[root] module.cats (expand) -->
<g id="edge2" class="edge">
<title>[root] module.cats.data.yandex_compute_image.ubuntu_image (expand)&#45;&gt;[root] module.cats (expand)</title>
<path fill="none" stroke="black" d="M380.33,-503.97C508.96,-491.14 681.87,-473.9 794.96,-462.62"/>
<polygon fill="black" stroke="black" points="795.43,-466.09 805.03,-461.62 794.73,-459.13 795.43,-466.09"/>
</g>
<!-- [root] module.cats.yandex_compute_instance.animal (expand) -->
<g id="node2" class="node">
<title>[root] module.cats.yandex_compute_instance.animal (expand)</title>
<polygon fill="none" stroke="black" points="1228.5,-612 882.5,-612 882.5,-576 1228.5,-576 1228.5,-612"/>
<text text-anchor="middle" x="1055.5" y="-590.3" font-family="Times,serif" font-size="14.00">module.cats.yandex_compute_instance.animal</text>
</g>
<!-- [root] module.cats.yandex_compute_instance.animal (expand)&#45;&gt;[root] module.cats.data.yandex_compute_image.ubuntu_image (expand) -->
<g id="edge9" class="edge">
<title>[root] module.cats.yandex_compute_instance.animal (expand)&#45;&gt;[root] module.cats.data.yandex_compute_image.ubuntu_image (expand)</title>
<path fill="none" stroke="black" d="M882.26,-578.67C750.07,-567.73 567.2,-552.6 425.47,-540.87"/>
<polygon fill="black" stroke="black" points="425.59,-537.37 415.34,-540.03 425.02,-544.34 425.59,-537.37"/>
</g>
<!-- [root] module.cats.var.nickname (expand) -->
<g id="node16" class="node">
<title>[root] module.cats.var.nickname (expand)</title>
<ellipse fill="none" stroke="black" cx="1089.5" cy="-522" rx="203.36" ry="18"/>
<text text-anchor="middle" x="1089.5" y="-518.3" font-family="Times,serif" font-size="14.00">[root] module.cats.var.nickname (expand)</text>
</g>
<!-- [root] module.cats.yandex_compute_instance.animal (expand)&#45;&gt;[root] module.cats.var.nickname (expand) -->
<g id="edge10" class="edge">
<title>[root] module.cats.yandex_compute_instance.animal (expand)&#45;&gt;[root] module.cats.var.nickname (expand)</title>
<path fill="none" stroke="black" d="M1063.9,-575.7C1067.77,-567.73 1072.45,-558.1 1076.74,-549.26"/>
<polygon fill="black" stroke="black" points="1079.97,-550.63 1081.19,-540.1 1073.67,-547.57 1079.97,-550.63"/>
</g>
<!-- [root] module.cats.var.pub_key_file (expand) -->
<g id="node17" class="node">
<title>[root] module.cats.var.pub_key_file (expand)</title>
<ellipse fill="none" stroke="black" cx="652.5" cy="-522" rx="215.56" ry="18"/>
<text text-anchor="middle" x="652.5" y="-518.3" font-family="Times,serif" font-size="14.00">[root] module.cats.var.pub_key_file (expand)</text>
</g>
<!-- [root] module.cats.yandex_compute_instance.animal (expand)&#45;&gt;[root] module.cats.var.pub_key_file (expand) -->
<g id="edge11" class="edge">
<title>[root] module.cats.yandex_compute_instance.animal (expand)&#45;&gt;[root] module.cats.var.pub_key_file (expand)</title>
<path fill="none" stroke="black" d="M957.43,-575.97C894.84,-565.09 813.99,-551.05 751.27,-540.16"/>
<polygon fill="black" stroke="black" points="751.82,-536.7 741.36,-538.44 750.62,-543.6 751.82,-536.7"/>
</g>
<!-- [root] module.cats.var.subnet_id (expand) -->
<g id="node18" class="node">
<title>[root] module.cats.var.subnet_id (expand)</title>
<ellipse fill="none" stroke="black" cx="1515.5" cy="-522" rx="204.16" ry="18"/>
<text text-anchor="middle" x="1515.5" y="-518.3" font-family="Times,serif" font-size="14.00">[root] module.cats.var.subnet_id (expand)</text>
</g>
<!-- [root] module.cats.yandex_compute_instance.animal (expand)&#45;&gt;[root] module.cats.var.subnet_id (expand) -->
<g id="edge12" class="edge">
<title>[root] module.cats.yandex_compute_instance.animal (expand)&#45;&gt;[root] module.cats.var.subnet_id (expand)</title>
<path fill="none" stroke="black" d="M1167.44,-575.97C1240.59,-564.83 1335.6,-550.38 1407.87,-539.38"/>
<polygon fill="black" stroke="black" points="1408.55,-542.82 1417.91,-537.85 1407.5,-535.89 1408.55,-542.82"/>
</g>
<!-- [root] module.dogs.data.yandex_compute_image.ubuntu_image (expand) -->
<g id="node3" class="node">
<title>[root] module.dogs.data.yandex_compute_image.ubuntu_image (expand)</title>
<polygon fill="none" stroke="black" points="3515,-540 3092,-540 3092,-504 3515,-504 3515,-540"/>
<text text-anchor="middle" x="3303.5" y="-518.3" font-family="Times,serif" font-size="14.00">module.dogs.data.yandex_compute_image.ubuntu_image</text>
</g>
<!-- [root] module.dogs.data.yandex_compute_image.ubuntu_image (expand)&#45;&gt;[root] provider[&quot;registry.terraform.io/yandex&#45;cloud/yandex&quot;] -->
<g id="edge15" class="edge">
<title>[root] module.dogs.data.yandex_compute_image.ubuntu_image (expand)&#45;&gt;[root] provider[&quot;registry.terraform.io/yandex&#45;cloud/yandex&quot;]</title>
<path fill="none" stroke="black" d="M3195.55,-503.99C3078.3,-482.4 2907.5,-440.4 2907.5,-379 2907.5,-379 2907.5,-379 2907.5,-233 2907.5,-193 2907.5,-146.65 2907.5,-118.08"/>
<polygon fill="black" stroke="black" points="2911,-118.05 2907.5,-108.05 2904,-118.05 2911,-118.05"/>
</g>
<!-- [root] module.dogs (expand) -->
<g id="node22" class="node">
<title>[root] module.dogs (expand)</title>
<ellipse fill="none" stroke="black" cx="2576.5" cy="-450" rx="141.88" ry="18"/>
<text text-anchor="middle" x="2576.5" y="-446.3" font-family="Times,serif" font-size="14.00">[root] module.dogs (expand)</text>
</g>
<!-- [root] module.dogs.data.yandex_compute_image.ubuntu_image (expand)&#45;&gt;[root] module.dogs (expand) -->
<g id="edge14" class="edge">
<title>[root] module.dogs.data.yandex_compute_image.ubuntu_image (expand)&#45;&gt;[root] module.dogs (expand)</title>
<path fill="none" stroke="black" d="M3126.59,-503.97C2992.84,-491.09 2812.85,-473.76 2695.76,-462.48"/>
<polygon fill="black" stroke="black" points="2695.98,-458.99 2685.69,-461.51 2695.31,-465.96 2695.98,-458.99"/>
</g>
<!-- [root] module.dogs.yandex_compute_instance.animal (expand) -->
<g id="node4" class="node">
<title>[root] module.dogs.yandex_compute_instance.animal (expand)</title>
<polygon fill="none" stroke="black" points="2813.5,-612 2463.5,-612 2463.5,-576 2813.5,-576 2813.5,-612"/>
<text text-anchor="middle" x="2638.5" y="-590.3" font-family="Times,serif" font-size="14.00">module.dogs.yandex_compute_instance.animal</text>
</g>
<!-- [root] module.dogs.yandex_compute_instance.animal (expand)&#45;&gt;[root] module.dogs.data.yandex_compute_image.ubuntu_image (expand) -->
<g id="edge21" class="edge">
<title>[root] module.dogs.yandex_compute_instance.animal (expand)&#45;&gt;[root] module.dogs.data.yandex_compute_image.ubuntu_image (expand)</title>
<path fill="none" stroke="black" d="M2800.33,-575.97C2900.69,-565.4 3029.52,-551.84 3131.7,-541.08"/>
<polygon fill="black" stroke="black" points="3132.23,-544.55 3141.81,-540.02 3131.5,-537.59 3132.23,-544.55"/>
</g>
<!-- [root] module.dogs.var.nickname (expand) -->
<g id="node23" class="node">
<title>[root] module.dogs.var.nickname (expand)</title>
<ellipse fill="none" stroke="black" cx="2867.5" cy="-522" rx="206.06" ry="18"/>
<text text-anchor="middle" x="2867.5" y="-518.3" font-family="Times,serif" font-size="14.00">[root] module.dogs.var.nickname (expand)</text>
</g>
<!-- [root] module.dogs.yandex_compute_instance.animal (expand)&#45;&gt;[root] module.dogs.var.nickname (expand) -->
<g id="edge22" class="edge">
<title>[root] module.dogs.yandex_compute_instance.animal (expand)&#45;&gt;[root] module.dogs.var.nickname (expand)</title>
<path fill="none" stroke="black" d="M2694.23,-575.97C2727.36,-565.84 2769.51,-552.95 2803.94,-542.43"/>
<polygon fill="black" stroke="black" points="2805.35,-545.66 2813.89,-539.39 2803.31,-538.96 2805.35,-545.66"/>
</g>
<!-- [root] module.dogs.var.pub_key_file (expand) -->
<g id="node24" class="node">
<title>[root] module.dogs.var.pub_key_file (expand)</title>
<ellipse fill="none" stroke="black" cx="2425.5" cy="-522" rx="218.26" ry="18"/>
<text text-anchor="middle" x="2425.5" y="-518.3" font-family="Times,serif" font-size="14.00">[root] module.dogs.var.pub_key_file (expand)</text>
</g>
<!-- [root] module.dogs.yandex_compute_instance.animal (expand)&#45;&gt;[root] module.dogs.var.pub_key_file (expand) -->
<g id="edge23" class="edge">
<title>[root] module.dogs.yandex_compute_instance.animal (expand)&#45;&gt;[root] module.dogs.var.pub_key_file (expand)</title>
<path fill="none" stroke="black" d="M2586.67,-575.97C2556.2,-565.95 2517.55,-553.25 2485.73,-542.79"/>
<polygon fill="black" stroke="black" points="2486.69,-539.42 2476.09,-539.63 2484.5,-546.07 2486.69,-539.42"/>
</g>
<!-- [root] module.dogs.var.subnet_id (expand) -->
<g id="node25" class="node">
<title>[root] module.dogs.var.subnet_id (expand)</title>
<ellipse fill="none" stroke="black" cx="1982.5" cy="-522" rx="206.86" ry="18"/>
<text text-anchor="middle" x="1982.5" y="-518.3" font-family="Times,serif" font-size="14.00">[root] module.dogs.var.subnet_id (expand)</text>
</g>
<!-- [root] module.dogs.yandex_compute_instance.animal (expand)&#45;&gt;[root] module.dogs.var.subnet_id (expand) -->
<g id="edge24" class="edge">
<title>[root] module.dogs.yandex_compute_instance.animal (expand)&#45;&gt;[root] module.dogs.var.subnet_id (expand)</title>
<path fill="none" stroke="black" d="M2478.86,-575.97C2368.18,-564.16 2222.41,-548.6 2117.51,-537.41"/>
<polygon fill="black" stroke="black" points="2117.81,-533.92 2107.49,-536.34 2117.06,-540.88 2117.81,-533.92"/>
</g>
<!-- [root] module.network.yandex_vpc_network.test&#45;net (expand) -->
<g id="node5" class="node">
<title>[root] module.network.yandex_vpc_network.test&#45;net (expand)</title>
<polygon fill="none" stroke="black" points="3303.5,-180 2959.5,-180 2959.5,-144 3303.5,-144 3303.5,-180"/>
<text text-anchor="middle" x="3131.5" y="-158.3" font-family="Times,serif" font-size="14.00">module.network.yandex_vpc_network.test&#45;net</text>
</g>
<!-- [root] module.network.yandex_vpc_network.test&#45;net (expand)&#45;&gt;[root] provider[&quot;registry.terraform.io/yandex&#45;cloud/yandex&quot;] -->
<g id="edge30" class="edge">
<title>[root] module.network.yandex_vpc_network.test&#45;net (expand)&#45;&gt;[root] provider[&quot;registry.terraform.io/yandex&#45;cloud/yandex&quot;]</title>
<path fill="none" stroke="black" d="M3076.99,-143.97C3042.93,-133.32 2999.13,-119.63 2964.59,-108.84"/>
<polygon fill="black" stroke="black" points="2965.24,-105.38 2954.65,-105.73 2963.15,-112.06 2965.24,-105.38"/>
</g>
<!-- [root] module.network (expand) -->
<g id="node29" class="node">
<title>[root] module.network (expand)</title>
<ellipse fill="none" stroke="black" cx="3483.5" cy="-90" rx="157.87" ry="18"/>
<text text-anchor="middle" x="3483.5" y="-86.3" font-family="Times,serif" font-size="14.00">[root] module.network (expand)</text>
</g>
<!-- [root] module.network.yandex_vpc_network.test&#45;net (expand)&#45;&gt;[root] module.network (expand) -->
<g id="edge29" class="edge">
<title>[root] module.network.yandex_vpc_network.test&#45;net (expand)&#45;&gt;[root] module.network (expand)</title>
<path fill="none" stroke="black" d="M3217.16,-143.97C3272.24,-133.01 3343.51,-118.84 3398.47,-107.91"/>
<polygon fill="black" stroke="black" points="3399.41,-111.29 3408.53,-105.91 3398.04,-104.43 3399.41,-111.29"/>
</g>
<!-- [root] module.subnet.yandex_vpc_subnet.kind_of_animals (expand) -->
<g id="node6" class="node">
<title>[root] module.subnet.yandex_vpc_subnet.kind_of_animals (expand)</title>
<polygon fill="none" stroke="black" points="1948,-396 1565,-396 1565,-360 1948,-360 1948,-396"/>
<text text-anchor="middle" x="1756.5" y="-374.3" font-family="Times,serif" font-size="14.00">module.subnet.yandex_vpc_subnet.kind_of_animals</text>
</g>
<!-- [root] module.subnet.var.kind (expand) -->
<g id="node33" class="node">
<title>[root] module.subnet.var.kind (expand)</title>
<ellipse fill="none" stroke="black" cx="2211.5" cy="-306" rx="191.97" ry="18"/>
<text text-anchor="middle" x="2211.5" y="-302.3" font-family="Times,serif" font-size="14.00">[root] module.subnet.var.kind (expand)</text>
</g>
<!-- [root] module.subnet.yandex_vpc_subnet.kind_of_animals (expand)&#45;&gt;[root] module.subnet.var.kind (expand) -->
<g id="edge39" class="edge">
<title>[root] module.subnet.yandex_vpc_subnet.kind_of_animals (expand)&#45;&gt;[root] module.subnet.var.kind (expand)</title>
<path fill="none" stroke="black" d="M1867.22,-359.97C1939.96,-348.78 2034.53,-334.23 2106.15,-323.21"/>
<polygon fill="black" stroke="black" points="2106.75,-326.66 2116.1,-321.68 2105.69,-319.74 2106.75,-326.66"/>
</g>
<!-- [root] module.subnet.var.network_id (expand) -->
<g id="node34" class="node">
<title>[root] module.subnet.var.network_id (expand)</title>
<ellipse fill="none" stroke="black" cx="2644.5" cy="-306" rx="222.86" ry="18"/>
<text text-anchor="middle" x="2644.5" y="-302.3" font-family="Times,serif" font-size="14.00">[root] module.subnet.var.network_id (expand)</text>
</g>
<!-- [root] module.subnet.yandex_vpc_subnet.kind_of_animals (expand)&#45;&gt;[root] module.subnet.var.network_id (expand) -->
<g id="edge40" class="edge">
<title>[root] module.subnet.yandex_vpc_subnet.kind_of_animals (expand)&#45;&gt;[root] module.subnet.var.network_id (expand)</title>
<path fill="none" stroke="black" d="M1948.09,-361.9C2106.96,-349.37 2330.38,-331.76 2480.95,-319.89"/>
<polygon fill="black" stroke="black" points="2481.52,-323.36 2491.22,-319.08 2480.97,-316.38 2481.52,-323.36"/>
</g>
<!-- [root] module.subnet.var.subnet_index (expand) -->
<g id="node35" class="node">
<title>[root] module.subnet.var.subnet_index (expand)</title>
<ellipse fill="none" stroke="black" cx="1260.5" cy="-306" rx="233.16" ry="18"/>
<text text-anchor="middle" x="1260.5" y="-302.3" font-family="Times,serif" font-size="14.00">[root] module.subnet.var.subnet_index (expand)</text>
</g>
<!-- [root] module.subnet.yandex_vpc_subnet.kind_of_animals (expand)&#45;&gt;[root] module.subnet.var.subnet_index (expand) -->
<g id="edge41" class="edge">
<title>[root] module.subnet.yandex_vpc_subnet.kind_of_animals (expand)&#45;&gt;[root] module.subnet.var.subnet_index (expand)</title>
<path fill="none" stroke="black" d="M1635.8,-359.97C1557.17,-348.87 1455.13,-334.47 1377.3,-323.48"/>
<polygon fill="black" stroke="black" points="1377.36,-319.96 1366.96,-322.03 1376.38,-326.89 1377.36,-319.96"/>
</g>
<!-- [root] module.subnet.var.yc_default_zone (expand) -->
<g id="node36" class="node">
<title>[root] module.subnet.var.yc_default_zone (expand)</title>
<ellipse fill="none" stroke="black" cx="1756.5" cy="-306" rx="245.06" ry="18"/>
<text text-anchor="middle" x="1756.5" y="-302.3" font-family="Times,serif" font-size="14.00">[root] module.subnet.var.yc_default_zone (expand)</text>
</g>
<!-- [root] module.subnet.yandex_vpc_subnet.kind_of_animals (expand)&#45;&gt;[root] module.subnet.var.yc_default_zone (expand) -->
<g id="edge42" class="edge">
<title>[root] module.subnet.yandex_vpc_subnet.kind_of_animals (expand)&#45;&gt;[root] module.subnet.var.yc_default_zone (expand)</title>
<path fill="none" stroke="black" d="M1756.5,-359.7C1756.5,-351.98 1756.5,-342.71 1756.5,-334.11"/>
<polygon fill="black" stroke="black" points="1760,-334.1 1756.5,-324.1 1753,-334.1 1760,-334.1"/>
</g>
<!-- [root] var.yc_default_zone -->
<g id="node10" class="node">
<title>[root] var.yc_default_zone</title>
<polygon fill="none" stroke="black" points="2905,-36 2756,-36 2756,0 2911,0 2911,-30 2905,-36"/>
<polyline fill="none" stroke="black" points="2905,-36 2905,-30 "/>
<polyline fill="none" stroke="black" points="2911,-30 2905,-30 "/>
<text text-anchor="middle" x="2833.5" y="-14.3" font-family="Times,serif" font-size="14.00">var.yc_default_zone</text>
</g>
<!-- [root] provider[&quot;registry.terraform.io/yandex&#45;cloud/yandex&quot;]&#45;&gt;[root] var.yc_default_zone -->
<g id="edge47" class="edge">
<title>[root] provider[&quot;registry.terraform.io/yandex&#45;cloud/yandex&quot;]&#45;&gt;[root] var.yc_default_zone</title>
<path fill="none" stroke="black" d="M2890.34,-72.76C2880.99,-63.92 2869.25,-52.82 2858.87,-43"/>
<polygon fill="black" stroke="black" points="2861.27,-40.45 2851.6,-36.12 2856.46,-45.54 2861.27,-40.45"/>
</g>
<!-- [root] var.yc_folder -->
<g id="node11" class="node">
<title>[root] var.yc_folder</title>
<polygon fill="none" stroke="black" points="3030,-36 2929,-36 2929,0 3036,0 3036,-30 3030,-36"/>
<polyline fill="none" stroke="black" points="3030,-36 3030,-30 "/>
<polyline fill="none" stroke="black" points="3036,-30 3030,-30 "/>
<text text-anchor="middle" x="2982.5" y="-14.3" font-family="Times,serif" font-size="14.00">var.yc_folder</text>
</g>
<!-- [root] provider[&quot;registry.terraform.io/yandex&#45;cloud/yandex&quot;]&#45;&gt;[root] var.yc_folder -->
<g id="edge48" class="edge">
<title>[root] provider[&quot;registry.terraform.io/yandex&#45;cloud/yandex&quot;]&#45;&gt;[root] var.yc_folder</title>
<path fill="none" stroke="black" d="M2924.9,-72.76C2934.37,-63.92 2946.27,-52.82 2956.79,-43"/>
<polygon fill="black" stroke="black" points="2959.23,-45.51 2964.15,-36.12 2954.45,-40.39 2959.23,-45.51"/>
</g>
<!-- [root] var.pub_key_file -->
<g id="node8" class="node">
<title>[root] var.pub_key_file</title>
<polygon fill="none" stroke="black" points="3246.5,-828 3122.5,-828 3122.5,-792 3252.5,-792 3252.5,-822 3246.5,-828"/>
<polyline fill="none" stroke="black" points="3246.5,-828 3246.5,-822 "/>
<polyline fill="none" stroke="black" points="3252.5,-822 3246.5,-822 "/>
<text text-anchor="middle" x="3187.5" y="-806.3" font-family="Times,serif" font-size="14.00">var.pub_key_file</text>
</g>
<!-- [root] var.yc_cloud -->
<g id="node9" class="node">
<title>[root] var.yc_cloud</title>
<polygon fill="none" stroke="black" points="3368.5,-828 3270.5,-828 3270.5,-792 3374.5,-792 3374.5,-822 3368.5,-828"/>
<polyline fill="none" stroke="black" points="3368.5,-828 3368.5,-822 "/>
<polyline fill="none" stroke="black" points="3374.5,-822 3368.5,-822 "/>
<text text-anchor="middle" x="3322.5" y="-806.3" font-family="Times,serif" font-size="14.00">var.yc_cloud</text>
</g>
<!-- [root] var.yc_token -->
<g id="node12" class="node">
<title>[root] var.yc_token</title>
<polygon fill="none" stroke="black" points="3492,-828 3393,-828 3393,-792 3498,-792 3498,-822 3492,-828"/>
<polyline fill="none" stroke="black" points="3492,-828 3492,-822 "/>
<polyline fill="none" stroke="black" points="3498,-822 3492,-822 "/>
<text text-anchor="middle" x="3445.5" y="-806.3" font-family="Times,serif" font-size="14.00">var.yc_token</text>
</g>
<!-- [root] module.cats (close) -->
<g id="node13" class="node">
<title>[root] module.cats (close)</title>
<ellipse fill="none" stroke="black" cx="1205.5" cy="-738" rx="128.88" ry="18"/>
<text text-anchor="middle" x="1205.5" y="-734.3" font-family="Times,serif" font-size="14.00">[root] module.cats (close)</text>
</g>
<!-- [root] module.cats.output.vm_public_ip (expand) -->
<g id="node14" class="node">
<title>[root] module.cats.output.vm_public_ip (expand)</title>
<ellipse fill="none" stroke="black" cx="921.5" cy="-666" rx="235.06" ry="18"/>
<text text-anchor="middle" x="921.5" y="-662.3" font-family="Times,serif" font-size="14.00">[root] module.cats.output.vm_public_ip (expand)</text>
</g>
<!-- [root] module.cats (close)&#45;&gt;[root] module.cats.output.vm_public_ip (expand) -->
<g id="edge1" class="edge">
<title>[root] module.cats (close)&#45;&gt;[root] module.cats.output.vm_public_ip (expand)</title>
<path fill="none" stroke="black" d="M1144.92,-722.07C1101.9,-711.46 1043.81,-697.15 997.64,-685.77"/>
<polygon fill="black" stroke="black" points="998.23,-682.31 987.68,-683.31 996.56,-689.1 998.23,-682.31"/>
</g>
<!-- [root] module.cats.output.vm_public_ip (expand)&#45;&gt;[root] module.cats.yandex_compute_instance.animal (expand) -->
<g id="edge4" class="edge">
<title>[root] module.cats.output.vm_public_ip (expand)&#45;&gt;[root] module.cats.yandex_compute_instance.animal (expand)</title>
<path fill="none" stroke="black" d="M953.94,-648.05C971.99,-638.62 994.66,-626.78 1013.99,-616.68"/>
<polygon fill="black" stroke="black" points="1015.65,-619.76 1022.9,-612.03 1012.41,-613.56 1015.65,-619.76"/>
</g>
<!-- [root] module.cats.var.nickname (expand)&#45;&gt;[root] module.cats (expand) -->
<g id="edge5" class="edge">
<title>[root] module.cats.var.nickname (expand)&#45;&gt;[root] module.cats (expand)</title>
<path fill="none" stroke="black" d="M1046.86,-504.23C1021.49,-494.25 989.14,-481.53 962.43,-471.03"/>
<polygon fill="black" stroke="black" points="963.45,-467.67 952.87,-467.27 960.89,-474.19 963.45,-467.67"/>
</g>
<!-- [root] module.cats.var.pub_key_file (expand)&#45;&gt;[root] module.cats (expand) -->
<g id="edge6" class="edge">
<title>[root] module.cats.var.pub_key_file (expand)&#45;&gt;[root] module.cats (expand)</title>
<path fill="none" stroke="black" d="M712.9,-504.68C752.25,-494.04 803.65,-480.15 844.3,-469.16"/>
<polygon fill="black" stroke="black" points="845.38,-472.5 854.12,-466.51 843.55,-465.74 845.38,-472.5"/>
</g>
<!-- [root] module.cats.var.subnet_id (expand)&#45;&gt;[root] module.cats (expand) -->
<g id="edge7" class="edge">
<title>[root] module.cats.var.subnet_id (expand)&#45;&gt;[root] module.cats (expand)</title>
<path fill="none" stroke="black" d="M1397.25,-507.3C1288.29,-494.67 1127.85,-476.07 1021.57,-463.76"/>
<polygon fill="black" stroke="black" points="1021.79,-460.26 1011.45,-462.58 1020.98,-467.21 1021.79,-460.26"/>
</g>
<!-- [root] module.subnet.output.subnet_id (expand) -->
<g id="node19" class="node">
<title>[root] module.subnet.output.subnet_id (expand)</title>
<ellipse fill="none" stroke="black" cx="1750.5" cy="-450" rx="233.16" ry="18"/>
<text text-anchor="middle" x="1750.5" y="-446.3" font-family="Times,serif" font-size="14.00">[root] module.subnet.output.subnet_id (expand)</text>
</g>
<!-- [root] module.cats.var.subnet_id (expand)&#45;&gt;[root] module.subnet.output.subnet_id (expand) -->
<g id="edge8" class="edge">
<title>[root] module.cats.var.subnet_id (expand)&#45;&gt;[root] module.subnet.output.subnet_id (expand)</title>
<path fill="none" stroke="black" d="M1570.6,-504.59C1604.82,-494.39 1649,-481.23 1685.01,-470.51"/>
<polygon fill="black" stroke="black" points="1686.35,-473.76 1694.93,-467.55 1684.35,-467.05 1686.35,-473.76"/>
</g>
<!-- [root] module.subnet.output.subnet_id (expand)&#45;&gt;[root] module.subnet.yandex_vpc_subnet.kind_of_animals (expand) -->
<g id="edge33" class="edge">
<title>[root] module.subnet.output.subnet_id (expand)&#45;&gt;[root] module.subnet.yandex_vpc_subnet.kind_of_animals (expand)</title>
<path fill="none" stroke="black" d="M1751.98,-431.7C1752.64,-423.98 1753.44,-414.71 1754.18,-406.11"/>
<polygon fill="black" stroke="black" points="1757.67,-406.37 1755.03,-396.1 1750.69,-405.77 1757.67,-406.37"/>
</g>
<!-- [root] module.dogs (close) -->
<g id="node20" class="node">
<title>[root] module.dogs (close)</title>
<ellipse fill="none" stroke="black" cx="2749.5" cy="-738" rx="131.88" ry="18"/>
<text text-anchor="middle" x="2749.5" y="-734.3" font-family="Times,serif" font-size="14.00">[root] module.dogs (close)</text>
</g>
<!-- [root] module.dogs.output.vm_public_ip (expand) -->
<g id="node21" class="node">
<title>[root] module.dogs.output.vm_public_ip (expand)</title>
<ellipse fill="none" stroke="black" cx="2691.5" cy="-666" rx="238.56" ry="18"/>
<text text-anchor="middle" x="2691.5" y="-662.3" font-family="Times,serif" font-size="14.00">[root] module.dogs.output.vm_public_ip (expand)</text>
</g>
<!-- [root] module.dogs (close)&#45;&gt;[root] module.dogs.output.vm_public_ip (expand) -->
<g id="edge13" class="edge">
<title>[root] module.dogs (close)&#45;&gt;[root] module.dogs.output.vm_public_ip (expand)</title>
<path fill="none" stroke="black" d="M2735.46,-720.05C2728.51,-711.67 2719.98,-701.38 2712.29,-692.1"/>
<polygon fill="black" stroke="black" points="2714.89,-689.74 2705.81,-684.28 2709.5,-694.21 2714.89,-689.74"/>
</g>
<!-- [root] module.dogs.output.vm_public_ip (expand)&#45;&gt;[root] module.dogs.yandex_compute_instance.animal (expand) -->
<g id="edge16" class="edge">
<title>[root] module.dogs.output.vm_public_ip (expand)&#45;&gt;[root] module.dogs.yandex_compute_instance.animal (expand)</title>
<path fill="none" stroke="black" d="M2678.4,-647.7C2672.11,-639.39 2664.45,-629.28 2657.54,-620.14"/>
<polygon fill="black" stroke="black" points="2660.28,-617.96 2651.45,-612.1 2654.7,-622.19 2660.28,-617.96"/>
</g>
<!-- [root] module.dogs.var.nickname (expand)&#45;&gt;[root] module.dogs (expand) -->
<g id="edge17" class="edge">
<title>[root] module.dogs.var.nickname (expand)&#45;&gt;[root] module.dogs (expand)</title>
<path fill="none" stroke="black" d="M2800.74,-504.94C2755.56,-494.07 2695.89,-479.72 2649.46,-468.55"/>
<polygon fill="black" stroke="black" points="2650,-465.08 2639.46,-466.15 2648.37,-471.89 2650,-465.08"/>
</g>
<!-- [root] module.dogs.var.pub_key_file (expand)&#45;&gt;[root] module.dogs (expand) -->
<g id="edge18" class="edge">
<title>[root] module.dogs.var.pub_key_file (expand)&#45;&gt;[root] module.dogs (expand)</title>
<path fill="none" stroke="black" d="M2461.67,-504.23C2482.66,-494.5 2509.29,-482.16 2531.61,-471.81"/>
<polygon fill="black" stroke="black" points="2533.29,-474.89 2540.89,-467.51 2530.34,-468.54 2533.29,-474.89"/>
</g>
<!-- [root] module.dogs.var.subnet_id (expand)&#45;&gt;[root] module.subnet.output.subnet_id (expand) -->
<g id="edge20" class="edge">
<title>[root] module.dogs.var.subnet_id (expand)&#45;&gt;[root] module.subnet.output.subnet_id (expand)</title>
<path fill="none" stroke="black" d="M1928.11,-504.59C1894.32,-494.39 1850.71,-481.23 1815.16,-470.51"/>
<polygon fill="black" stroke="black" points="1815.94,-467.09 1805.36,-467.55 1813.92,-473.79 1815.94,-467.09"/>
</g>
<!-- [root] module.dogs.var.subnet_id (expand)&#45;&gt;[root] module.dogs (expand) -->
<g id="edge19" class="edge">
<title>[root] module.dogs.var.subnet_id (expand)&#45;&gt;[root] module.dogs (expand)</title>
<path fill="none" stroke="black" d="M2099.86,-507.17C2206.2,-494.64 2361.76,-476.31 2465.94,-464.03"/>
<polygon fill="black" stroke="black" points="2466.65,-467.47 2476.17,-462.82 2465.83,-460.52 2466.65,-467.47"/>
</g>
<!-- [root] module.network (close) -->
<g id="node26" class="node">
<title>[root] module.network (close)</title>
<ellipse fill="none" stroke="black" cx="3539.5" cy="-306" rx="147.57" ry="18"/>
<text text-anchor="middle" x="3539.5" y="-302.3" font-family="Times,serif" font-size="14.00">[root] module.network (close)</text>
</g>
<!-- [root] module.network.output.network_id (expand) -->
<g id="node27" class="node">
<title>[root] module.network.output.network_id (expand)</title>
<ellipse fill="none" stroke="black" cx="3181.5" cy="-234" rx="245.86" ry="18"/>
<text text-anchor="middle" x="3181.5" y="-230.3" font-family="Times,serif" font-size="14.00">[root] module.network.output.network_id (expand)</text>
</g>
<!-- [root] module.network (close)&#45;&gt;[root] module.network.output.network_id (expand) -->
<g id="edge25" class="edge">
<title>[root] module.network (close)&#45;&gt;[root] module.network.output.network_id (expand)</title>
<path fill="none" stroke="black" d="M3464.89,-290.41C3409.29,-279.54 3333.04,-264.63 3273.64,-253.02"/>
<polygon fill="black" stroke="black" points="3273.99,-249.52 3263.51,-251.04 3272.65,-256.39 3273.99,-249.52"/>
</g>
<!-- [root] module.network.var.folder_id (expand) -->
<g id="node28" class="node">
<title>[root] module.network.var.folder_id (expand)</title>
<ellipse fill="none" stroke="black" cx="3539.5" cy="-162" rx="218.26" ry="18"/>
<text text-anchor="middle" x="3539.5" y="-158.3" font-family="Times,serif" font-size="14.00">[root] module.network.var.folder_id (expand)</text>
</g>
<!-- [root] module.network (close)&#45;&gt;[root] module.network.var.folder_id (expand) -->
<g id="edge26" class="edge">
<title>[root] module.network (close)&#45;&gt;[root] module.network.var.folder_id (expand)</title>
<path fill="none" stroke="black" d="M3539.5,-287.87C3539.5,-263.67 3539.5,-219.21 3539.5,-190.39"/>
<polygon fill="black" stroke="black" points="3543,-190.19 3539.5,-180.19 3536,-190.19 3543,-190.19"/>
</g>
<!-- [root] module.network.output.network_id (expand)&#45;&gt;[root] module.network.yandex_vpc_network.test&#45;net (expand) -->
<g id="edge27" class="edge">
<title>[root] module.network.output.network_id (expand)&#45;&gt;[root] module.network.yandex_vpc_network.test&#45;net (expand)</title>
<path fill="none" stroke="black" d="M3169.14,-215.7C3163.27,-207.47 3156.13,-197.48 3149.66,-188.42"/>
<polygon fill="black" stroke="black" points="3152.38,-186.21 3143.72,-180.1 3146.68,-190.28 3152.38,-186.21"/>
</g>
<!-- [root] module.network.var.folder_id (expand)&#45;&gt;[root] module.network (expand) -->
<g id="edge28" class="edge">
<title>[root] module.network.var.folder_id (expand)&#45;&gt;[root] module.network (expand)</title>
<path fill="none" stroke="black" d="M3525.66,-143.7C3519.01,-135.39 3510.92,-125.28 3503.61,-116.14"/>
<polygon fill="black" stroke="black" points="3506.16,-113.73 3497.18,-108.1 3500.7,-118.1 3506.16,-113.73"/>
</g>
<!-- [root] module.subnet (close) -->
<g id="node30" class="node">
<title>[root] module.subnet (close)</title>
<ellipse fill="none" stroke="black" cx="2398.5" cy="-738" rx="141.88" ry="18"/>
<text text-anchor="middle" x="2398.5" y="-734.3" font-family="Times,serif" font-size="14.00">[root] module.subnet (close)</text>
</g>
<!-- [root] module.subnet (close)&#45;&gt;[root] module.subnet.output.subnet_id (expand) -->
<g id="edge31" class="edge">
<title>[root] module.subnet (close)&#45;&gt;[root] module.subnet.output.subnet_id (expand)</title>
<path fill="none" stroke="black" d="M2260.63,-733.71C2115.53,-722.41 1891.24,-681.3 1766.5,-540 1751.77,-523.32 1748.45,-497.82 1748.42,-478.39"/>
<polygon fill="black" stroke="black" points="1751.92,-478.4 1748.68,-468.31 1744.92,-478.21 1751.92,-478.4"/>
</g>
<!-- [root] module.subnet (expand) -->
<g id="node31" class="node">
<title>[root] module.subnet (expand)</title>
<ellipse fill="none" stroke="black" cx="1983.5" cy="-234" rx="151.37" ry="18"/>
<text text-anchor="middle" x="1983.5" y="-230.3" font-family="Times,serif" font-size="14.00">[root] module.subnet (expand)</text>
</g>
<!-- [root] local.kinds (expand) -->
<g id="node32" class="node">
<title>[root] local.kinds (expand)</title>
<ellipse fill="none" stroke="black" cx="1983.5" cy="-162" rx="131.88" ry="18"/>
<text text-anchor="middle" x="1983.5" y="-158.3" font-family="Times,serif" font-size="14.00">[root] local.kinds (expand)</text>
</g>
<!-- [root] module.subnet (expand)&#45;&gt;[root] local.kinds (expand) -->
<g id="edge32" class="edge">
<title>[root] module.subnet (expand)&#45;&gt;[root] local.kinds (expand)</title>
<path fill="none" stroke="black" d="M1983.5,-215.7C1983.5,-207.98 1983.5,-198.71 1983.5,-190.11"/>
<polygon fill="black" stroke="black" points="1987,-190.1 1983.5,-180.1 1980,-190.1 1987,-190.1"/>
</g>
<!-- [root] module.subnet.var.kind (expand)&#45;&gt;[root] module.subnet (expand) -->
<g id="edge34" class="edge">
<title>[root] module.subnet.var.kind (expand)&#45;&gt;[root] module.subnet (expand)</title>
<path fill="none" stroke="black" d="M2158.33,-288.68C2124.53,-278.3 2080.65,-264.83 2045.3,-253.97"/>
<polygon fill="black" stroke="black" points="2046.16,-250.58 2035.57,-250.99 2044.1,-257.27 2046.16,-250.58"/>
</g>
<!-- [root] module.subnet.var.network_id (expand)&#45;&gt;[root] module.network.output.network_id (expand) -->
<g id="edge35" class="edge">
<title>[root] module.subnet.var.network_id (expand)&#45;&gt;[root] module.network.output.network_id (expand)</title>
<path fill="none" stroke="black" d="M2756.42,-290.41C2844.12,-278.98 2966.07,-263.08 3056.87,-251.25"/>
<polygon fill="black" stroke="black" points="3057.48,-254.7 3066.95,-249.93 3056.58,-247.75 3057.48,-254.7"/>
</g>
<!-- [root] module.subnet.var.network_id (expand)&#45;&gt;[root] module.subnet (expand) -->
<g id="edge36" class="edge">
<title>[root] module.subnet.var.network_id (expand)&#45;&gt;[root] module.subnet (expand)</title>
<path fill="none" stroke="black" d="M2515.09,-291.3C2395.3,-278.61 2218.66,-259.9 2102.37,-247.59"/>
<polygon fill="black" stroke="black" points="2102.67,-244.1 2092.36,-246.53 2101.93,-251.06 2102.67,-244.1"/>
</g>
<!-- [root] module.subnet.var.subnet_index (expand)&#45;&gt;[root] module.subnet (expand) -->
<g id="edge37" class="edge">
<title>[root] module.subnet.var.subnet_index (expand)&#45;&gt;[root] module.subnet (expand)</title>
<path fill="none" stroke="black" d="M1399.9,-291.5C1533.14,-278.6 1732.11,-259.34 1859.84,-246.97"/>
<polygon fill="black" stroke="black" points="1860.44,-250.43 1870.06,-245.98 1859.77,-243.46 1860.44,-250.43"/>
</g>
<!-- [root] module.subnet.var.yc_default_zone (expand)&#45;&gt;[root] module.subnet (expand) -->
<g id="edge38" class="edge">
<title>[root] module.subnet.var.yc_default_zone (expand)&#45;&gt;[root] module.subnet (expand)</title>
<path fill="none" stroke="black" d="M1810.3,-288.41C1843.85,-278.06 1887.14,-264.71 1922.04,-253.95"/>
<polygon fill="black" stroke="black" points="1923.13,-257.28 1931.65,-250.99 1921.07,-250.59 1923.13,-257.28"/>
</g>
<!-- [root] output.ip_of_cats (expand) -->
<g id="node37" class="node">
<title>[root] output.ip_of_cats (expand)</title>
<ellipse fill="none" stroke="black" cx="1681.5" cy="-810" rx="161.67" ry="18"/>
<text text-anchor="middle" x="1681.5" y="-806.3" font-family="Times,serif" font-size="14.00">[root] output.ip_of_cats (expand)</text>
</g>
<!-- [root] output.ip_of_cats (expand)&#45;&gt;[root] module.cats (close) -->
<g id="edge43" class="edge">
<title>[root] output.ip_of_cats (expand)&#45;&gt;[root] module.cats (close)</title>
<path fill="none" stroke="black" d="M1588.03,-795.25C1505.03,-783.05 1384.3,-765.29 1300.77,-753.01"/>
<polygon fill="black" stroke="black" points="1301.17,-749.53 1290.77,-751.54 1300.15,-756.46 1301.17,-749.53"/>
</g>
<!-- [root] output.ip_of_dogs (expand) -->
<g id="node38" class="node">
<title>[root] output.ip_of_dogs (expand)</title>
<ellipse fill="none" stroke="black" cx="2864.5" cy="-810" rx="165.17" ry="18"/>
<text text-anchor="middle" x="2864.5" y="-806.3" font-family="Times,serif" font-size="14.00">[root] output.ip_of_dogs (expand)</text>
</g>
<!-- [root] output.ip_of_dogs (expand)&#45;&gt;[root] module.dogs (close) -->
<g id="edge44" class="edge">
<title>[root] output.ip_of_dogs (expand)&#45;&gt;[root] module.dogs (close)</title>
<path fill="none" stroke="black" d="M2836.95,-792.23C2821.59,-782.88 2802.27,-771.12 2785.7,-761.04"/>
<polygon fill="black" stroke="black" points="2787.18,-757.84 2776.82,-755.63 2783.54,-763.82 2787.18,-757.84"/>
</g>
<!-- [root] provider[&quot;registry.terraform.io/yandex&#45;cloud/yandex&quot;] (close) -->
<g id="node39" class="node">
<title>[root] provider[&quot;registry.terraform.io/yandex&#45;cloud/yandex&quot;] (close)</title>
<ellipse fill="none" stroke="black" cx="1497.5" cy="-666" rx="322.24" ry="18"/>
<text text-anchor="middle" x="1497.5" y="-662.3" font-family="Times,serif" font-size="14.00">[root] provider[&quot;registry.terraform.io/yandex&#45;cloud/yandex&quot;] (close)</text>
</g>
<!-- [root] provider[&quot;registry.terraform.io/yandex&#45;cloud/yandex&quot;] (close)&#45;&gt;[root] module.cats.yandex_compute_instance.animal (expand) -->
<g id="edge45" class="edge">
<title>[root] provider[&quot;registry.terraform.io/yandex&#45;cloud/yandex&quot;] (close)&#45;&gt;[root] module.cats.yandex_compute_instance.animal (expand)</title>
<path fill="none" stroke="black" d="M1395.82,-648.9C1329.37,-638.37 1242.37,-624.59 1172.96,-613.6"/>
<polygon fill="black" stroke="black" points="1173.28,-610.11 1162.85,-612 1172.18,-617.02 1173.28,-610.11"/>
</g>
<!-- [root] provider[&quot;registry.terraform.io/yandex&#45;cloud/yandex&quot;] (close)&#45;&gt;[root] module.dogs.yandex_compute_instance.animal (expand) -->
<g id="edge46" class="edge">
<title>[root] provider[&quot;registry.terraform.io/yandex&#45;cloud/yandex&quot;] (close)&#45;&gt;[root] module.dogs.yandex_compute_instance.animal (expand)</title>
<path fill="none" stroke="black" d="M1705.45,-652.24C1918.95,-639.14 2248.1,-618.95 2453.01,-606.38"/>
<polygon fill="black" stroke="black" points="2453.52,-609.86 2463.28,-605.75 2453.09,-602.87 2453.52,-609.86"/>
</g>
<!-- [root] root -->
<g id="node40" class="node">
<title>[root] root</title>
<ellipse fill="none" stroke="black" cx="2960.5" cy="-882" rx="58.49" ry="18"/>
<text text-anchor="middle" x="2960.5" y="-878.3" font-family="Times,serif" font-size="14.00">[root] root</text>
</g>
<!-- [root] root&#45;&gt;[root] var.pub_key_file -->
<g id="edge54" class="edge">
<title>[root] root&#45;&gt;[root] var.pub_key_file</title>
<path fill="none" stroke="black" d="M3000.3,-868.73C3033.94,-858.35 3082.8,-843.29 3122.17,-831.15"/>
<polygon fill="black" stroke="black" points="3123.44,-834.42 3131.96,-828.13 3121.37,-827.73 3123.44,-834.42"/>
</g>
<!-- [root] root&#45;&gt;[root] var.yc_cloud -->
<g id="edge55" class="edge">
<title>[root] root&#45;&gt;[root] var.yc_cloud</title>
<path fill="none" stroke="black" d="M3012.2,-873.47C3070.35,-864.64 3167.75,-848.82 3260.51,-828.11"/>
<polygon fill="black" stroke="black" points="3261.36,-831.51 3270.34,-825.9 3259.82,-824.68 3261.36,-831.51"/>
</g>
<!-- [root] root&#45;&gt;[root] var.yc_token -->
<g id="edge56" class="edge">
<title>[root] root&#45;&gt;[root] var.yc_token</title>
<path fill="none" stroke="black" d="M3016.34,-876.57C3095.75,-869.69 3245.95,-854.62 3383.01,-827.93"/>
<polygon fill="black" stroke="black" points="3383.72,-831.35 3392.86,-825.99 3382.37,-824.49 3383.72,-831.35"/>
</g>
<!-- [root] root&#45;&gt;[root] module.network (close) -->
<g id="edge49" class="edge">
<title>[root] root&#45;&gt;[root] module.network (close)</title>
<path fill="none" stroke="black" d="M2986.52,-865.71C3096.29,-801.15 3516.24,-553.6 3524.5,-540 3563.94,-475.04 3553.66,-380.27 3545.33,-334.19"/>
<polygon fill="black" stroke="black" points="3548.71,-333.24 3543.39,-324.08 3541.84,-334.56 3548.71,-333.24"/>
</g>
<!-- [root] root&#45;&gt;[root] module.subnet (close) -->
<g id="edge50" class="edge">
<title>[root] root&#45;&gt;[root] module.subnet (close)</title>
<path fill="none" stroke="black" d="M2910.15,-872.7C2855.66,-863.35 2766.39,-846.96 2690.5,-828 2607.87,-807.36 2513.92,-777.56 2455.41,-758.23"/>
<polygon fill="black" stroke="black" points="2456.22,-754.81 2445.63,-754.99 2454.02,-761.46 2456.22,-754.81"/>
</g>
<!-- [root] root&#45;&gt;[root] output.ip_of_cats (expand) -->
<g id="edge51" class="edge">
<title>[root] root&#45;&gt;[root] output.ip_of_cats (expand)</title>
<path fill="none" stroke="black" d="M2903.48,-877.88C2716.43,-867.64 2117.28,-834.85 1833.41,-819.31"/>
<polygon fill="black" stroke="black" points="1833.21,-815.8 1823.03,-818.75 1832.83,-822.79 1833.21,-815.8"/>
</g>
<!-- [root] root&#45;&gt;[root] output.ip_of_dogs (expand) -->
<g id="edge52" class="edge">
<title>[root] root&#45;&gt;[root] output.ip_of_dogs (expand)</title>
<path fill="none" stroke="black" d="M2938.72,-865.12C2926.16,-855.96 2910.16,-844.29 2896.23,-834.14"/>
<polygon fill="black" stroke="black" points="2898.02,-831.11 2887.87,-828.04 2893.89,-836.76 2898.02,-831.11"/>
</g>
<!-- [root] root&#45;&gt;[root] provider[&quot;registry.terraform.io/yandex&#45;cloud/yandex&quot;] (close) -->
<g id="edge53" class="edge">
<title>[root] root&#45;&gt;[root] provider[&quot;registry.terraform.io/yandex&#45;cloud/yandex&quot;] (close)</title>
<path fill="none" stroke="black" d="M2907.62,-874.21C2831.65,-864.39 2687.25,-845.47 2564.5,-828 2216.31,-778.43 1804.98,-714.98 1610.37,-684.67"/>
<polygon fill="black" stroke="black" points="1610.84,-681.2 1600.42,-683.11 1609.76,-688.11 1610.84,-681.2"/>
</g>
</g>
</svg>
