<?xml version="1.0" encoding="UTF-8" standalone="no"?>
<!DOCTYPE svg PUBLIC "-//W3C//DTD SVG 1.1//EN"
 "http://www.w3.org/Graphics/SVG/1.1/DTD/svg11.dtd">
<!-- Generated by graphviz version 2.43.0 (0)
 -->
<!-- Title: G Pages: 1 -->
<svg width="1929pt" height="152pt"
 viewBox="0.00 0.00 1929.00 152.00" xmlns="http://www.w3.org/2000/svg" xmlns:xlink="http://www.w3.org/1999/xlink">
<g id="graph0" class="graph" transform="scale(1 1) rotate(0) translate(4 148)">
<title>G</title>
<polygon fill="white" stroke="transparent" points="-4,4 -4,-148 1925,-148 1925,4 -4,4"/>
<!-- null_resource.curl -->
<g id="node1" class="node">
<title>null_resource.curl</title>
<polygon fill="none" stroke="black" points="1921,-144 1782,-144 1782,-108 1921,-108 1921,-144"/>
<text text-anchor="middle" x="1851.5" y="-122.3" font-family="sans-serif" font-size="14.00">null_resource.curl</text>
</g>
<!-- yandex_storage_bucket_grant.public_read -->
<g id="node6" class="node">
<title>yandex_storage_bucket_grant.public_read</title>
<polygon fill="none" stroke="black" points="1746,-144 1438,-144 1438,-108 1746,-108 1746,-144"/>
<text text-anchor="middle" x="1592" y="-122.3" font-family="sans-serif" font-size="14.00">yandex_storage_bucket_grant.public_read</text>
</g>
<!-- null_resource.curl&#45;&gt;yandex_storage_bucket_grant.public_read -->
<g id="edge1" class="edge">
<title>null_resource.curl&#45;&gt;yandex_storage_bucket_grant.public_read</title>
<path fill="none" stroke="black" d="M1781.83,-126C1773.8,-126 1765.37,-126 1756.71,-126"/>
<polygon fill="black" stroke="black" points="1756.44,-122.5 1746.44,-126 1756.44,-129.5 1756.44,-122.5"/>
</g>
<!-- yandex_iam_service_account.sa -->
<g id="node2" class="node">
<title>yandex_iam_service_account.sa</title>
<polygon fill="none" stroke="black" points="238,-63 0,-63 0,-27 238,-27 238,-63"/>
<text text-anchor="middle" x="119" y="-41.3" font-family="sans-serif" font-size="14.00">yandex_iam_service_account.sa</text>
</g>
<!-- yandex_iam_service_account_static_access_key.sa_static_key -->
<g id="node3" class="node">
<title>yandex_iam_service_account_static_access_key.sa_static_key</title>
<polygon fill="none" stroke="black" points="713,-90 274,-90 274,-54 713,-54 713,-90"/>
<text text-anchor="middle" x="493.5" y="-68.3" font-family="sans-serif" font-size="14.00">yandex_iam_service_account_static_access_key.sa_static_key</text>
</g>
<!-- yandex_iam_service_account_static_access_key.sa_static_key&#45;&gt;yandex_iam_service_account.sa -->
<g id="edge2" class="edge">
<title>yandex_iam_service_account_static_access_key.sa_static_key&#45;&gt;yandex_iam_service_account.sa</title>
<path fill="none" stroke="black" d="M273.93,-56.16C265.25,-55.53 256.66,-54.91 248.26,-54.3"/>
<polygon fill="black" stroke="black" points="248.32,-50.79 238.09,-53.56 247.81,-57.77 248.32,-50.79"/>
</g>
<!-- yandex_resourcemanager_folder_iam_member.sa_editor -->
<g id="node4" class="node">
<title>yandex_resourcemanager_folder_iam_member.sa_editor</title>
<polygon fill="none" stroke="black" points="697,-36 290,-36 290,0 697,0 697,-36"/>
<text text-anchor="middle" x="493.5" y="-14.3" font-family="sans-serif" font-size="14.00">yandex_resourcemanager_folder_iam_member.sa_editor</text>
</g>
<!-- yandex_resourcemanager_folder_iam_member.sa_editor&#45;&gt;yandex_iam_service_account.sa -->
<g id="edge3" class="edge">
<title>yandex_resourcemanager_folder_iam_member.sa_editor&#45;&gt;yandex_iam_service_account.sa</title>
<path fill="none" stroke="black" d="M289.9,-32.69C275.89,-33.7 262.01,-34.71 248.57,-35.68"/>
<polygon fill="black" stroke="black" points="248.11,-32.2 238.39,-36.42 248.62,-39.19 248.11,-32.2"/>
</g>
<!-- yandex_storage_bucket.website -->
<g id="node5" class="node">
<title>yandex_storage_bucket.website</title>
<polygon fill="none" stroke="black" points="987,-90 749,-90 749,-54 987,-54 987,-90"/>
<text text-anchor="middle" x="868" y="-68.3" font-family="sans-serif" font-size="14.00">yandex_storage_bucket.website</text>
</g>
<!-- yandex_storage_bucket.website&#45;&gt;yandex_iam_service_account_static_access_key.sa_static_key -->
<g id="edge4" class="edge">
<title>yandex_storage_bucket.website&#45;&gt;yandex_iam_service_account_static_access_key.sa_static_key</title>
<path fill="none" stroke="black" d="M748.88,-72C740.54,-72 731.98,-72 723.29,-72"/>
<polygon fill="black" stroke="black" points="723.03,-68.5 713.03,-72 723.03,-75.5 723.03,-68.5"/>
</g>
<!-- yandex_storage_bucket_iam_binding.storage_admin -->
<g id="node7" class="node">
<title>yandex_storage_bucket_iam_binding.storage_admin</title>
<polygon fill="none" stroke="black" points="1402,-144 1023,-144 1023,-108 1402,-108 1402,-144"/>
<text text-anchor="middle" x="1212.5" y="-122.3" font-family="sans-serif" font-size="14.00">yandex_storage_bucket_iam_binding.storage_admin</text>
</g>
<!-- yandex_storage_bucket_grant.public_read&#45;&gt;yandex_storage_bucket_iam_binding.storage_admin -->
<g id="edge5" class="edge">
<title>yandex_storage_bucket_grant.public_read&#45;&gt;yandex_storage_bucket_iam_binding.storage_admin</title>
<path fill="none" stroke="black" d="M1437.73,-126C1429.29,-126 1420.75,-126 1412.18,-126"/>
<polygon fill="black" stroke="black" points="1412.12,-122.5 1402.12,-126 1412.12,-129.5 1412.12,-122.5"/>
</g>
<!-- yandex_storage_bucket_iam_binding.storage_admin&#45;&gt;yandex_storage_bucket.website -->
<g id="edge6" class="edge">
<title>yandex_storage_bucket_iam_binding.storage_admin&#45;&gt;yandex_storage_bucket.website</title>
<path fill="none" stroke="black" d="M1081.88,-107.98C1062.14,-105.08 1042.02,-102.03 1023,-99 1008.84,-96.75 993.97,-94.27 979.29,-91.77"/>
<polygon fill="black" stroke="black" points="979.61,-88.27 969.16,-90.03 978.42,-95.17 979.61,-88.27"/>
</g>
<!-- yandex_storage_object.error&#45;html -->
<g id="node8" class="node">
<title>yandex_storage_object.error&#45;html</title>
<polygon fill="none" stroke="black" points="1336.5,-90 1088.5,-90 1088.5,-54 1336.5,-54 1336.5,-90"/>
<text text-anchor="middle" x="1212.5" y="-68.3" font-family="sans-serif" font-size="14.00">yandex_storage_object.error&#45;html</text>
</g>
<!-- yandex_storage_object.error&#45;html&#45;&gt;yandex_storage_bucket.website -->
<g id="edge7" class="edge">
<title>yandex_storage_object.error&#45;html&#45;&gt;yandex_storage_bucket.website</title>
<path fill="none" stroke="black" d="M1088.33,-72C1058.7,-72 1026.97,-72 997.12,-72"/>
<polygon fill="black" stroke="black" points="997.07,-68.5 987.07,-72 997.07,-75.5 997.07,-68.5"/>
</g>
<!-- yandex_storage_object.index&#45;html -->
<g id="node9" class="node">
<title>yandex_storage_object.index&#45;html</title>
<polygon fill="none" stroke="black" points="1340,-36 1085,-36 1085,0 1340,0 1340,-36"/>
<text text-anchor="middle" x="1212.5" y="-14.3" font-family="sans-serif" font-size="14.00">yandex_storage_object.index&#45;html</text>
</g>
<!-- yandex_storage_object.index&#45;html&#45;&gt;yandex_storage_bucket.website -->
<g id="edge8" class="edge">
<title>yandex_storage_object.index&#45;html&#45;&gt;yandex_storage_bucket.website</title>
<path fill="none" stroke="black" d="M1084.93,-35.57C1064.22,-38.61 1043,-41.82 1023,-45 1008.84,-47.25 993.97,-49.73 979.29,-52.23"/>
<polygon fill="black" stroke="black" points="978.42,-48.83 969.16,-53.97 979.61,-55.73 978.42,-48.83"/>
</g>
</g>
</svg>
