<?xml version="1.0" encoding="UTF-8" standalone="no"?>
<!DOCTYPE svg PUBLIC "-//W3C//DTD SVG 1.1//EN"
 "http://www.w3.org/Graphics/SVG/1.1/DTD/svg11.dtd">
<!-- Generated by graphviz version 2.43.0 (0)
 -->
<!-- Title: G Pages: 1 -->
<svg width="1356pt" height="206pt"
 viewBox="0.00 0.00 1356.00 206.00" xmlns="http://www.w3.org/2000/svg" xmlns:xlink="http://www.w3.org/1999/xlink">
<g id="graph0" class="graph" transform="scale(1 1) rotate(0) translate(4 202)">
<title>G</title>
<polygon fill="white" stroke="transparent" points="-4,4 -4,-202 1352,-202 1352,4 -4,4"/>
<!-- yandex_iam_service_account.sa -->
<g id="node1" class="node">
<title>yandex_iam_service_account.sa</title>
<polygon fill="none" stroke="black" points="238,-90 0,-90 0,-54 238,-54 238,-90"/>
<text text-anchor="middle" x="119" y="-68.3" font-family="sans-serif" font-size="14.00">yandex_iam_service_account.sa</text>
</g>
<!-- yandex_iam_service_account_static_access_key.sa_static_key -->
<g id="node2" class="node">
<title>yandex_iam_service_account_static_access_key.sa_static_key</title>
<polygon fill="none" stroke="black" points="713,-144 274,-144 274,-108 713,-108 713,-144"/>
<text text-anchor="middle" x="493.5" y="-122.3" font-family="sans-serif" font-size="14.00">yandex_iam_service_account_static_access_key.sa_static_key</text>
</g>
<!-- yandex_iam_service_account_static_access_key.sa_static_key&#45;&gt;yandex_iam_service_account.sa -->
<g id="edge1" class="edge">
<title>yandex_iam_service_account_static_access_key.sa_static_key&#45;&gt;yandex_iam_service_account.sa</title>
<path fill="none" stroke="black" d="M338.67,-107.98C316.93,-105.15 294.89,-102.12 274,-99 259.25,-96.8 243.73,-94.29 228.45,-91.72"/>
<polygon fill="black" stroke="black" points="228.91,-88.25 218.46,-90.03 227.74,-95.15 228.91,-88.25"/>
</g>
<!-- yandex_resourcemanager_folder_iam_member.sa_editor -->
<g id="node3" class="node">
<title>yandex_resourcemanager_folder_iam_member.sa_editor</title>
<polygon fill="none" stroke="black" points="697,-90 290,-90 290,-54 697,-54 697,-90"/>
<text text-anchor="middle" x="493.5" y="-68.3" font-family="sans-serif" font-size="14.00">yandex_resourcemanager_folder_iam_member.sa_editor</text>
</g>
<!-- yandex_resourcemanager_folder_iam_member.sa_editor&#45;&gt;yandex_iam_service_account.sa -->
<g id="edge2" class="edge">
<title>yandex_resourcemanager_folder_iam_member.sa_editor&#45;&gt;yandex_iam_service_account.sa</title>
<path fill="none" stroke="black" d="M289.9,-72C275.89,-72 262.01,-72 248.57,-72"/>
<polygon fill="black" stroke="black" points="248.39,-68.5 238.39,-72 248.39,-75.5 248.39,-68.5"/>
</g>
<!-- yandex_storage_bucket.website -->
<g id="node4" class="node">
<title>yandex_storage_bucket.website</title>
<polygon fill="none" stroke="black" points="1022,-171 784,-171 784,-135 1022,-135 1022,-171"/>
<text text-anchor="middle" x="903" y="-149.3" font-family="sans-serif" font-size="14.00">yandex_storage_bucket.website</text>
</g>
<!-- yandex_storage_bucket.website&#45;&gt;yandex_iam_service_account_static_access_key.sa_static_key -->
<g id="edge3" class="edge">
<title>yandex_storage_bucket.website&#45;&gt;yandex_iam_service_account_static_access_key.sa_static_key</title>
<path fill="none" stroke="black" d="M783.86,-145.17C764.67,-143.9 744.25,-142.55 723.47,-141.17"/>
<polygon fill="black" stroke="black" points="723.45,-137.66 713.24,-140.49 722.99,-144.65 723.45,-137.66"/>
</g>
<!-- yandex_storage_bucket_grant.public_read -->
<g id="node5" class="node">
<title>yandex_storage_bucket_grant.public_read</title>
<polygon fill="none" stroke="black" points="1057,-117 749,-117 749,-81 1057,-81 1057,-117"/>
<text text-anchor="middle" x="903" y="-95.3" font-family="sans-serif" font-size="14.00">yandex_storage_bucket_grant.public_read</text>
</g>
<!-- yandex_storage_bucket_grant.public_read&#45;&gt;yandex_iam_service_account_static_access_key.sa_static_key -->
<g id="edge4" class="edge">
<title>yandex_storage_bucket_grant.public_read&#45;&gt;yandex_iam_service_account_static_access_key.sa_static_key</title>
<path fill="none" stroke="black" d="M748.81,-109.15C740.38,-109.71 731.82,-110.28 723.2,-110.85"/>
<polygon fill="black" stroke="black" points="722.8,-107.37 713.05,-111.52 723.26,-114.35 722.8,-107.37"/>
</g>
<!-- yandex_storage_bucket_iam_binding.storage_admin -->
<g id="node6" class="node">
<title>yandex_storage_bucket_iam_binding.storage_admin</title>
<polygon fill="none" stroke="black" points="683,-36 304,-36 304,0 683,0 683,-36"/>
<text text-anchor="middle" x="493.5" y="-14.3" font-family="sans-serif" font-size="14.00">yandex_storage_bucket_iam_binding.storage_admin</text>
</g>
<!-- yandex_storage_bucket_iam_binding.storage_admin&#45;&gt;yandex_iam_service_account.sa -->
<g id="edge5" class="edge">
<title>yandex_storage_bucket_iam_binding.storage_admin&#45;&gt;yandex_iam_service_account.sa</title>
<path fill="none" stroke="black" d="M338.67,-36.02C316.93,-38.85 294.89,-41.88 274,-45 259.25,-47.2 243.73,-49.71 228.45,-52.28"/>
<polygon fill="black" stroke="black" points="227.74,-48.85 218.46,-53.97 228.91,-55.75 227.74,-48.85"/>
</g>
<!-- yandex_storage_object.error&#45;html -->
<g id="node7" class="node">
<title>yandex_storage_object.error&#45;html</title>
<polygon fill="none" stroke="black" points="1344.5,-198 1096.5,-198 1096.5,-162 1344.5,-162 1344.5,-198"/>
<text text-anchor="middle" x="1220.5" y="-176.3" font-family="sans-serif" font-size="14.00">yandex_storage_object.error&#45;html</text>
</g>
<!-- yandex_storage_object.error&#45;html&#45;&gt;yandex_storage_bucket.website -->
<g id="edge6" class="edge">
<title>yandex_storage_object.error&#45;html&#45;&gt;yandex_storage_bucket.website</title>
<path fill="none" stroke="black" d="M1096.16,-169.45C1075.13,-167.64 1053.23,-165.77 1032.07,-163.96"/>
<polygon fill="black" stroke="black" points="1032.35,-160.47 1022.08,-163.11 1031.75,-167.45 1032.35,-160.47"/>
</g>
<!-- yandex_storage_object.index&#45;html -->
<g id="node8" class="node">
<title>yandex_storage_object.index&#45;html</title>
<polygon fill="none" stroke="black" points="1348,-144 1093,-144 1093,-108 1348,-108 1348,-144"/>
<text text-anchor="middle" x="1220.5" y="-122.3" font-family="sans-serif" font-size="14.00">yandex_storage_object.index&#45;html</text>
</g>
<!-- yandex_storage_object.index&#45;html&#45;&gt;yandex_storage_bucket.website -->
<g id="edge7" class="edge">
<title>yandex_storage_object.index&#45;html&#45;&gt;yandex_storage_bucket.website</title>
<path fill="none" stroke="black" d="M1092.99,-136.83C1072.97,-138.54 1052.26,-140.31 1032.2,-142.03"/>
<polygon fill="black" stroke="black" points="1031.76,-138.55 1022.1,-142.89 1032.36,-145.53 1031.76,-138.55"/>
</g>
</g>
</svg>
