<?xml version="1.0" encoding="UTF-8" standalone="no"?>
<!DOCTYPE svg PUBLIC "-//W3C//DTD SVG 1.1//EN"
 "http://www.w3.org/Graphics/SVG/1.1/DTD/svg11.dtd">
<!-- Generated by graphviz version 2.43.0 (0)
 -->
<!-- Title: %3 Pages: 1 -->
<svg width="961pt" height="404pt"
 viewBox="0.00 0.00 960.95 404.00" xmlns="http://www.w3.org/2000/svg" xmlns:xlink="http://www.w3.org/1999/xlink">
<g id="graph0" class="graph" transform="scale(1 1) rotate(0) translate(4 400)">
<title>%3</title>
<polygon fill="white" stroke="transparent" points="-4,4 -4,-400 956.95,-400 956.95,4 -4,4"/>
<!-- [root] provider[&quot;registry.terraform.io/yandex&#45;cloud/yandex&quot;] -->
<g id="node1" class="node">
<title>[root] provider[&quot;registry.terraform.io/yandex&#45;cloud/yandex&quot;]</title>
<polygon fill="none" stroke="black" points="584.37,-108 215.71,-90 584.37,-72 953.04,-90 584.37,-108"/>
<text text-anchor="middle" x="584.37" y="-86.3" font-family="Times,serif" font-size="14.00">provider[&quot;registry.terraform.io/yandex&#45;cloud/yandex&quot;]</text>
</g>
<!-- [root] var.yc_cloud -->
<g id="node3" class="node">
<title>[root] var.yc_cloud</title>
<polygon fill="none" stroke="black" points="506.37,-36 408.37,-36 408.37,0 512.37,0 512.37,-30 506.37,-36"/>
<polyline fill="none" stroke="black" points="506.37,-36 506.37,-30 "/>
<polyline fill="none" stroke="black" points="512.37,-30 506.37,-30 "/>
<text text-anchor="middle" x="460.37" y="-14.3" font-family="Times,serif" font-size="14.00">var.yc_cloud</text>
</g>
<!-- [root] provider[&quot;registry.terraform.io/yandex&#45;cloud/yandex&quot;]&#45;&gt;[root] var.yc_cloud -->
<g id="edge2" class="edge">
<title>[root] provider[&quot;registry.terraform.io/yandex&#45;cloud/yandex&quot;]&#45;&gt;[root] var.yc_cloud</title>
<path fill="none" stroke="black" d="M556.54,-73.29C539.73,-63.8 518.04,-51.55 499.52,-41.1"/>
<polygon fill="black" stroke="black" points="501.14,-38 490.71,-36.13 497.7,-44.09 501.14,-38"/>
</g>
<!-- [root] var.yc_folder -->
<g id="node5" class="node">
<title>[root] var.yc_folder</title>
<polygon fill="none" stroke="black" points="631.87,-36 530.87,-36 530.87,0 637.87,0 637.87,-30 631.87,-36"/>
<polyline fill="none" stroke="black" points="631.87,-36 631.87,-30 "/>
<polyline fill="none" stroke="black" points="637.87,-30 631.87,-30 "/>
<text text-anchor="middle" x="584.37" y="-14.3" font-family="Times,serif" font-size="14.00">var.yc_folder</text>
</g>
<!-- [root] provider[&quot;registry.terraform.io/yandex&#45;cloud/yandex&quot;]&#45;&gt;[root] var.yc_folder -->
<g id="edge3" class="edge">
<title>[root] provider[&quot;registry.terraform.io/yandex&#45;cloud/yandex&quot;]&#45;&gt;[root] var.yc_folder</title>
<path fill="none" stroke="black" d="M584.37,-71.7C584.37,-63.98 584.37,-54.71 584.37,-46.11"/>
<polygon fill="black" stroke="black" points="587.87,-46.1 584.37,-36.1 580.87,-46.1 587.87,-46.1"/>
</g>
<!-- [root] var.yc_token -->
<g id="node6" class="node">
<title>[root] var.yc_token</title>
<polygon fill="none" stroke="black" points="754.87,-36 655.87,-36 655.87,0 760.87,0 760.87,-30 754.87,-36"/>
<polyline fill="none" stroke="black" points="754.87,-36 754.87,-30 "/>
<polyline fill="none" stroke="black" points="760.87,-30 754.87,-30 "/>
<text text-anchor="middle" x="708.37" y="-14.3" font-family="Times,serif" font-size="14.00">var.yc_token</text>
</g>
<!-- [root] provider[&quot;registry.terraform.io/yandex&#45;cloud/yandex&quot;]&#45;&gt;[root] var.yc_token -->
<g id="edge4" class="edge">
<title>[root] provider[&quot;registry.terraform.io/yandex&#45;cloud/yandex&quot;]&#45;&gt;[root] var.yc_token</title>
<path fill="none" stroke="black" d="M612.2,-73.29C629.01,-63.8 650.7,-51.55 669.23,-41.1"/>
<polygon fill="black" stroke="black" points="671.04,-44.09 678.03,-36.13 667.6,-38 671.04,-44.09"/>
</g>
<!-- [root] var.subnet_cidr -->
<g id="node2" class="node">
<title>[root] var.subnet_cidr</title>
<polygon fill="none" stroke="black" points="220.37,-180 100.37,-180 100.37,-144 226.37,-144 226.37,-174 220.37,-180"/>
<polyline fill="none" stroke="black" points="220.37,-180 220.37,-174 "/>
<polyline fill="none" stroke="black" points="226.37,-174 220.37,-174 "/>
<text text-anchor="middle" x="163.37" y="-158.3" font-family="Times,serif" font-size="14.00">var.subnet_cidr</text>
</g>
<!-- [root] var.yc_default_zone -->
<g id="node4" class="node">
<title>[root] var.yc_default_zone</title>
<polygon fill="none" stroke="black" points="393.87,-180 244.87,-180 244.87,-144 399.87,-144 399.87,-174 393.87,-180"/>
<polyline fill="none" stroke="black" points="393.87,-180 393.87,-174 "/>
<polyline fill="none" stroke="black" points="399.87,-174 393.87,-174 "/>
<text text-anchor="middle" x="322.37" y="-158.3" font-family="Times,serif" font-size="14.00">var.yc_default_zone</text>
</g>
<!-- [root] yandex_vpc_network.les04_implicit_network (expand) -->
<g id="node7" class="node">
<title>[root] yandex_vpc_network.les04_implicit_network (expand)</title>
<polygon fill="none" stroke="black" points="750.87,-180 417.87,-180 417.87,-144 750.87,-144 750.87,-180"/>
<text text-anchor="middle" x="584.37" y="-158.3" font-family="Times,serif" font-size="14.00">yandex_vpc_network.les04_implicit_network</text>
</g>
<!-- [root] yandex_vpc_network.les04_implicit_network (expand)&#45;&gt;[root] provider[&quot;registry.terraform.io/yandex&#45;cloud/yandex&quot;] -->
<g id="edge6" class="edge">
<title>[root] yandex_vpc_network.les04_implicit_network (expand)&#45;&gt;[root] provider[&quot;registry.terraform.io/yandex&#45;cloud/yandex&quot;]</title>
<path fill="none" stroke="black" d="M584.37,-143.7C584.37,-135.98 584.37,-126.71 584.37,-118.11"/>
<polygon fill="black" stroke="black" points="587.87,-118.1 584.37,-108.1 580.87,-118.1 587.87,-118.1"/>
</g>
<!-- [root] yandex_vpc_subnet.les04_implicit_subnet (expand) -->
<g id="node8" class="node">
<title>[root] yandex_vpc_subnet.les04_implicit_subnet (expand)</title>
<polygon fill="none" stroke="black" points="479.37,-252 165.37,-252 165.37,-216 479.37,-216 479.37,-252"/>
<text text-anchor="middle" x="322.37" y="-230.3" font-family="Times,serif" font-size="14.00">yandex_vpc_subnet.les04_implicit_subnet</text>
</g>
<!-- [root] yandex_vpc_subnet.les04_implicit_subnet (expand)&#45;&gt;[root] var.subnet_cidr -->
<g id="edge7" class="edge">
<title>[root] yandex_vpc_subnet.les04_implicit_subnet (expand)&#45;&gt;[root] var.subnet_cidr</title>
<path fill="none" stroke="black" d="M283.48,-215.88C261.74,-206.31 234.47,-194.3 211.41,-184.15"/>
<polygon fill="black" stroke="black" points="212.7,-180.89 202.14,-180.07 209.88,-187.3 212.7,-180.89"/>
</g>
<!-- [root] yandex_vpc_subnet.les04_implicit_subnet (expand)&#45;&gt;[root] var.yc_default_zone -->
<g id="edge8" class="edge">
<title>[root] yandex_vpc_subnet.les04_implicit_subnet (expand)&#45;&gt;[root] var.yc_default_zone</title>
<path fill="none" stroke="black" d="M322.37,-215.7C322.37,-207.98 322.37,-198.71 322.37,-190.11"/>
<polygon fill="black" stroke="black" points="325.87,-190.1 322.37,-180.1 318.87,-190.1 325.87,-190.1"/>
</g>
<!-- [root] yandex_vpc_subnet.les04_implicit_subnet (expand)&#45;&gt;[root] yandex_vpc_network.les04_implicit_network (expand) -->
<g id="edge9" class="edge">
<title>[root] yandex_vpc_subnet.les04_implicit_subnet (expand)&#45;&gt;[root] yandex_vpc_network.les04_implicit_network (expand)</title>
<path fill="none" stroke="black" d="M386.13,-215.97C423.69,-205.93 471.37,-193.19 510.56,-182.72"/>
<polygon fill="black" stroke="black" points="511.57,-186.07 520.33,-180.11 509.76,-179.31 511.57,-186.07"/>
</g>
<!-- [root] provider[&quot;registry.terraform.io/yandex&#45;cloud/yandex&quot;] (close) -->
<g id="node9" class="node">
<title>[root] provider[&quot;registry.terraform.io/yandex&#45;cloud/yandex&quot;] (close)</title>
<ellipse fill="none" stroke="black" cx="322.37" cy="-306" rx="322.24" ry="18"/>
<text text-anchor="middle" x="322.37" y="-302.3" font-family="Times,serif" font-size="14.00">[root] provider[&quot;registry.terraform.io/yandex&#45;cloud/yandex&quot;] (close)</text>
</g>
<!-- [root] provider[&quot;registry.terraform.io/yandex&#45;cloud/yandex&quot;] (close)&#45;&gt;[root] yandex_vpc_subnet.les04_implicit_subnet (expand) -->
<g id="edge1" class="edge">
<title>[root] provider[&quot;registry.terraform.io/yandex&#45;cloud/yandex&quot;] (close)&#45;&gt;[root] yandex_vpc_subnet.les04_implicit_subnet (expand)</title>
<path fill="none" stroke="black" d="M322.37,-287.7C322.37,-279.98 322.37,-270.71 322.37,-262.11"/>
<polygon fill="black" stroke="black" points="325.87,-262.1 322.37,-252.1 318.87,-262.1 325.87,-262.1"/>
</g>
<!-- [root] root -->
<g id="node10" class="node">
<title>[root] root</title>
<ellipse fill="none" stroke="black" cx="322.37" cy="-378" rx="58.49" ry="18"/>
<text text-anchor="middle" x="322.37" y="-374.3" font-family="Times,serif" font-size="14.00">[root] root</text>
</g>
<!-- [root] root&#45;&gt;[root] provider[&quot;registry.terraform.io/yandex&#45;cloud/yandex&quot;] (close) -->
<g id="edge5" class="edge">
<title>[root] root&#45;&gt;[root] provider[&quot;registry.terraform.io/yandex&#45;cloud/yandex&quot;] (close)</title>
<path fill="none" stroke="black" d="M322.37,-359.7C322.37,-351.98 322.37,-342.71 322.37,-334.11"/>
<polygon fill="black" stroke="black" points="325.87,-334.1 322.37,-324.1 318.87,-334.1 325.87,-334.1"/>
</g>
</g>
</svg>
